HIERARCHY
ROOT Hips
{
 OFFSET 0.000000 0.000000 0.000000
 CHANNELS 6 Xposition Yposition Zposition Yrotation Xrotation Zrotation
 JOINT Chest
 {
  OFFSET 0.000000 9.585900 0.002600
  CHANNELS 3 Yrotation Xrotation Zrotation
  JOINT Chest2
  {
   OFFSET 0.000000 9.601200 -0.005300
   CHANNELS 3 Yrotation Xrotation Zrotation
   JOINT Chest3
   {
    OFFSET 0.000000 9.561800 0.000000
    CHANNELS 3 Yrotation Xrotation Zrotation
    JOINT Chest4
    {
     OFFSET 0.000000 9.552100 0.000000
     CHANNELS 3 Yrotation Xrotation Zrotation
     JOINT Neck
     {
      OFFSET 0.000000 14.453000 0.000000
      CHANNELS 3 Yrotation Xrotation Zrotation
      JOINT Head
      {
       OFFSET 0.000000 8.936500 -0.011300
       CHANNELS 3 Yrotation Xrotation Zrotation
       End Site
       {
        OFFSET 0.000000 17.073600 -0.006000
       }
      }
     }
     JOINT RightCollar
     {
      OFFSET -2.921100 9.558500 0.000000
      CHANNELS 3 Yrotation Xrotation Zrotation
      JOINT RightShoulder
      {
       OFFSET -13.519700 0.000000 0.000000
       CHANNELS 3 Yrotation Xrotation Zrotation
       JOINT RightElbow
       {
        OFFSET 0.000000 -29.696600 0.000000
        CHANNELS 3 Yrotation Xrotation Zrotation
        JOINT RightWrist
        {
         OFFSET 0.000000 -24.004700 0.000000
         CHANNELS 3 Yrotation Xrotation Zrotation
         End Site
         {
          OFFSET 0.000000 -17.728500 0.000000
         }
        }
       }
      }
     }
     JOINT LeftCollar
     {
      OFFSET 2.921100 9.558500 0.000000
      CHANNELS 3 Yrotation Xrotation Zrotation
      JOINT LeftShoulder
      {
       OFFSET 13.519700 0.000000 0.000000
       CHANNELS 3 Yrotation Xrotation Zrotation
       JOINT LeftElbow
       {
        OFFSET 0.000000 -29.696600 0.000000
        CHANNELS 3 Yrotation Xrotation Zrotation
        JOINT LeftWrist
        {
         OFFSET 0.000000 -24.004700 0.000000
         CHANNELS 3 Yrotation Xrotation Zrotation
         End Site
         {
          OFFSET 0.000000 -17.728500 0.000000
         }
        }
       }
      }
     }
    }
   }
  }
 }
 JOINT RightHip
 {
  OFFSET -7.771700 -0.012900 -0.001300
  CHANNELS 3 Yrotation Xrotation Zrotation
  JOINT RightKnee
  {
   OFFSET 0.000000 -40.869800 0.001200
   CHANNELS 3 Yrotation Xrotation Zrotation
   JOINT RightAnkle
   {
    OFFSET 0.000000 -39.717900 0.002100
    CHANNELS 3 Yrotation Xrotation Zrotation
    JOINT RightToe
    {
     OFFSET 0.000000 -4.965400 11.033500
     CHANNELS 3 Yrotation Xrotation Zrotation
     End Site
     {
      OFFSET 0.000000 -1.423100 5.872300
     }
    }
   }
  }
 }
 JOINT LeftHip
 {
  OFFSET 7.771700 -0.012900 -0.001300
  CHANNELS 3 Yrotation Xrotation Zrotation
  JOINT LeftKnee
  {
   OFFSET 0.000000 -40.869800 0.001200
   CHANNELS 3 Yrotation Xrotation Zrotation
   JOINT LeftAnkle
   {
    OFFSET 0.000000 -39.717900 0.002100
    CHANNELS 3 Yrotation Xrotation Zrotation
    JOINT LeftToe
    {
     OFFSET 0.000000 -4.965400 11.033500
     CHANNELS 3 Yrotation Xrotation Zrotation
     End Site
     {
      OFFSET 0.000000 -1.423100 5.872300
     }
    }
   }
  }
 }
}
MOTION
Frames: 5
Frame Time: 0.008333
0.000000 85.388000 0.000000 0.000000 -5.767877 0.000000 0.000000 11.653817 0.000000 0.000000 -5.885947 0.000000 0.000000 -0.000000 0.000000 0.000000 -0.000000 0.000000 0.000000 12.528835 0.000000 0.000000 0.711642 0.000000 0.000000 -0.000000 0.000000 0.000000 0.000000 -90.000000 0.000000 -2.309062 0.000000 0.000000 2.309062 0.000000 0.000000 -0.000000 0.000000 0.000000 -0.000000 90.000000 0.000000 -2.309062 0.000000 0.000000 2.309062 0.000000 0.000000 8.520406 0.000000 0.000000 1.905762 0.000000 -0.000000 -4.658285 0.000000 0.000000 -0.000000 0.000000 0.000000 8.520406 0.000000 0.000000 1.905762 0.000000 -0.000000 -4.658285 0.000000 0.000000 -0.000000 0.000000
-12.006015 57.690591 49.153401 -178.872337 -29.614829 -0.731768 2.022320 20.341530 4.010726 0.158748 2.657384 0.298313 0.295120 4.314369 0.479743 1.409278 17.602105 2.171921 -2.477672 12.904949 -2.295667 -3.852463 -11.803689 -3.387935 5.416274 -4.104440 -2.264397 14.867680 -17.865025 -21.110758 135.002576 -74.197850 -93.958422 15.353603 -19.497595 -47.092881 -8.183536 -5.342210 -2.929529 0.057215 -9.301212 0.595360 29.045125 -30.983617 -73.973900 6.726703 5.577385 16.228442 7.331585 -41.746783 -3.808448 -1.528123 67.553540 -4.192297 4.933095 5.322321 7.699163 -0.061163 0.156458 -0.023928 -10.069337 -49.463335 2.700552 24.783375 69.451292 23.339187 -13.498370 30.236382 1.104714 0.233724 -17.418532 -6.611458
-12.006880 57.691540 49.153484 -178.879380 -29.629860 -0.729441 2.045191 20.334673 4.011622 0.157231 2.661727 0.298751 0.285045 4.326427 0.484806 1.428773 17.589098 2.164494 -2.535437 12.933905 -2.340211 -3.909023 -11.760909 -3.373117 5.385863 -4.090511 -2.244680 14.870841 -17.871678 -21.108834 134.996990 -74.184977 -93.967581 15.344469 -19.502273 -47.068921 -8.195928 -5.324373 -2.916472 0.064083 -9.304895 0.590363 29.047358 -30.989719 -73.979817 6.734708 5.594478 16.231909 7.334598 -41.731463 -3.804698 -1.512228 67.553946 -4.178369 4.927663 5.321863 7.698877 -0.055200 0.156896 -0.023640 -10.055594 -49.448748 2.694956 24.762819 69.452188 23.318041 -13.482922 30.250336 1.120263 0.230777 -17.432549 -6.618676
-12.008578 57.692944 49.153433 -178.887621 -29.650104 -0.723277 2.064721 20.337368 4.011340 0.158433 2.661030 0.295524 0.288152 4.326001 0.484711 1.441908 17.587620 2.165819 -2.567267 12.957009 -2.338684 -3.987133 -11.702006 -3.398389 5.350912 -4.074799 -2.222774 14.875931 -17.876171 -21.108035 134.980676 -74.181203 -93.959697 15.342139 -19.507468 -47.054210 -8.211418 -5.303881 -2.905957 0.089698 -9.311558 0.575230 29.036150 -30.996176 -73.979521 6.733916 5.612657 16.233522 7.353392 -41.710051 -3.813115 -1.499552 67.555122 -4.159230 4.919232 5.321680 7.699530 -0.057626 0.156681 -0.023732 -10.009105 -49.427875 2.662180 24.784458 69.443316 23.348652 -13.472947 30.255346 1.148597 0.219265 -17.439135 -6.627938
-12.010839 57.694505 49.153789 -178.884428 -29.671715 -0.720924 2.071083 20.340517 4.008754 0.163154 2.662424 0.296657 0.290400 4.325676 0.484600 1.473121 17.562124 2.161615 -2.618307 13.003634 -2.330424 -4.066191 -11.632081 -3.422398 5.295703 -4.037694 -2.191123 14.881586 -17.876751 -21.109318 134.972113 -74.177613 -93.959728 15.340875 -19.512410 -47.041196 -8.253014 -5.260359 -2.891183 0.101637 -9.314437 0.563862 29.079483 -31.013357 -73.996781 6.740108 5.662215 16.233639 7.356168 -41.687098 -3.819093 -1.490703 67.556817 -4.150357 4.919834 5.322718 7.702025 -0.057287 0.154051 -0.023697 -9.972774 -49.405886 2.628118 24.775411 69.434142 23.352301 -13.467522 30.269040 1.159213 0.214075 -17.448516 -6.629652
